<svg id="Capa_1" enable-background="new 0 0 501 501" height="512" viewBox="0 0 501 501" width="512" xmlns="http://www.w3.org/2000/svg"><g><path d="m13.8 239.559c-2.728 3.124-7.852.937-7.524-3.197 10.003-126.128 115.525-225.362 244.224-225.362 135.31 0 245 109.69 245 245v.137c-.003 5.926-6.419 9.607-11.592 6.716-8.411-4.7-16.999-8.773-25.653-12.145-89.544-34.888-123.466 29.749-245.143-1.061-79.539-20.141-106.335-58.217-156-42.449-5.609 1.781-21.54 7.433-43.312 32.361z" fill="#015aad"/><path d="m5.5 256c0-7.024.296-13.98.875-20.854 29.23-43.077 51.444-51.025 58.125-53.146 46.799-14.858 72.05 21.021 147 40 114.657 29.033 146.622-31.875 231 1 18.38 7.161 36.446 17.681 52.99 30.748.655 72.872-30.509 138.479-80.439 183.77-4.016 3.643-10.065 3.776-14.315.408-37.014-29.334-90.611-47.774-150.236-47.774-59.798 0-113.533 18.547-150.557 48.029-4.056 3.23-9.841 3.092-13.688-.386-49.593-44.834-80.755-109.675-80.755-181.795z" fill="#528ed7"/><path d="m414.5 130c0-5.523 4.477-10 10-10s10 4.477 10 10-4.477 10-10 10-10-4.477-10-10zm-340 98.694c-5.523 0-10 4.478-10 10 0 5.523 4.477 10 10 10s10-4.477 10-10c0-5.522-4.477-10-10-10zm350 45.313c-5.523 0-10 4.477-10 10s4.477 10 10 10 10-4.477 10-10-4.477-10-10-10z" fill="#fff5f5"/><path d="m84.5 150c0 5.523-4.477 10-10 10s-10-4.477-10-10 4.477-10 10-10 10 4.477 10 10zm170-70c-5.523 0-10 4.477-10 10s4.477 10 10 10 10-4.477 10-10-4.477-10-10-10zm190 100c-5.523 0-10 4.477-10 10s4.477 10 10 10 10-4.477 10-10-4.477-10-10-10z" fill="#91cefb"/><path d="m85.64 437.237c5.232-75.69 77.042-135.661 164.86-135.661s159.628 59.97 164.86 135.661c-43.523 39.614-101.372 63.763-164.86 63.763s-121.337-24.149-164.86-63.763z" fill="#bbe0fb"/><path d="m250.5 301.577c11.183 0 22.107.974 32.667 2.827-75.572 13.267-132.499 71.663-132.499 141.693v.149c.011 9.239 4.478 17.916 11.853 23.48 14.297 10.788 29.766 20.103 46.184 27.722-46.937-8.068-89.309-29.489-123.065-60.212 5.232-75.689 77.041-135.659 164.86-135.659z" fill="#91cefb"/><path d="m357.092 454.965v21.694c-5.104 2.47-10.305 4.768-15.599 6.887v-28.581c0-4.307 3.492-7.799 7.8-7.799 4.307-.001 7.799 3.492 7.799 7.799zm-205.384-7.8c-4.307 0-7.799 3.492-7.799 7.799v21.694c5.103 2.47 10.305 4.768 15.599 6.887v-28.581c-.001-4.306-3.493-7.799-7.8-7.799z" fill="#81ade2"/><path d="m244.137 469.021c-50.216-21.262-92.818-56.993-122.576-101.966-19.8-29.924-7.2-70.771 26.034-84.299 32.033-13.039 67.073-20.223 103.791-20.223 35.913 0 70.221 6.872 101.68 19.374 33.324 13.243 46.494 53.576 26.906 83.612-29.8 45.695-72.797 81.998-123.584 103.502-3.912 1.656-8.339 1.657-12.251 0z" fill="#d00041"/><path d="m379.455 366.309c-26.033 39.621-62.012 72.123-104.385 93.957-33.062-15.833-62.474-38.066-86.63-65.096-8.961-10.026-7.719-14.57 3.825-4.179 20.074 18.068 42.7 33.256 67.246 45.01 1.066.51 2.217.765 3.369.765 1.227 0 2.453-.289 3.572-.866 25.316-13.044 48.488-29.806 68.873-49.822 3.04-2.985 3.344-7.951.441-11.068-3.006-3.228-8.059-3.318-11.181-.248-14.672 14.435-30.873 27.082-48.336 37.749-8.329 5.088-18.785 5.215-27.257.371-36.437-20.836-67.601-50.028-90.863-85.283-1.065-1.614-2.027-3.278-2.884-4.982 3.162-18.668 15.544-35.587 34.796-43.424 18.825-7.663 38.689-13.304 59.322-16.652h.004c36.692-.263 71.739 6.648 103.82 19.414 33.467 13.317 46.047 54.251 26.268 84.354z" fill="#f52c2c"/><path d="m392.716 246.208c0 68.726-63.672 133.328-142.216 133.328s-142.216-64.602-142.216-133.328c0-35.8 17.277-68.068 44.933-90.771-16.717-17.009-32.616-46.635-40.272-75.208-12.419-46.35 1.554-72.375 25.663-78.835 24.109-6.46 49.223 9.093 61.642 55.442 6.219 23.211 8.075 49.743 5.351 71.261 14.114-4.106 29.21-6.329 44.899-6.329 78.544.001 142.216 55.714 142.216 124.44z" fill="#91cefb"/><path d="m392.716 246.208c0 65.478-57.796 127.212-131.185 132.901-52.787-22.252-90.148-76.447-90.148-133.252 0-55.768 36.009-103.595 87.271-123.887 12.772.632 25.093 2.739 36.745 6.128-2.724-21.518-.868-48.051 5.351-71.262 12.419-46.349 37.534-61.902 61.642-55.442s38.082 32.486 25.663 78.835c-7.656 28.573-23.555 58.199-40.272 75.208 27.656 22.704 44.933 54.972 44.933 90.771zm-206.598-107.902c7.204 5.668 17.791 1.484 19.124-7.585 3.228-21.958 1.482-49.721-4.993-73.884-12.473-46.55-37.751-62.036-61.955-55.356-5.28 13.174-5.832 31.562.52 55.267 8.726 32.562 28.157 66.493 47.304 81.558z" fill="#bbe0fb"/><path d="m330.497 285.683c0 33.27-35.816 67.89-79.997 67.89s-79.997-34.62-79.997-67.89 35.816-60.24 79.997-60.24 79.997 26.97 79.997 60.24z" fill="#e3f0fb"/><path d="m275.297 220.932c12.578 2.626 18.544 17.35 10.949 27.715-8.074 11.019-21.079 19.016-35.746 19.016-14.668 0-27.672-7.997-35.746-19.016-7.595-10.365-1.629-25.089 10.949-27.715 8.003-1.671 16.298-2.549 24.797-2.549s16.794.878 24.797 2.549z" fill="#fd3980"/><path d="m284.599 237.192c0 6.489-8.283 11.75-18.5 11.75s-18.5-5.261-18.5-11.75 8.283-11.75 18.5-11.75 18.5 5.261 18.5 11.75z" fill="#fda0c1"/><path d="m183.619 68.934c7.145 26.664 4.281 60.948-9.589 64.664-13.869 3.716-33.491-24.542-40.636-51.206s.894-41.636 14.763-45.352c13.87-3.717 28.318 5.23 35.462 31.894zm169.223-31.894c-13.869-3.716-28.317 5.23-35.461 31.894-7.145 26.664-4.281 60.948 9.589 64.664 13.869 3.716 33.491-24.542 40.636-51.206 7.143-26.664-.895-41.636-14.764-45.352zm-201.134 170.944c-8.615 0-15.599 9.312-15.599 20.798 0 11.487 6.984 20.798 15.599 20.798s15.599-9.312 15.599-20.798c-.001-11.486-6.985-20.798-15.599-20.798zm197.584 0c-8.615 0-15.599 9.312-15.599 20.798 0 11.487 6.984 20.798 15.599 20.798s15.599-9.312 15.599-20.798-6.984-20.798-15.599-20.798z" fill="#fc5e93"/><path d="m212.531 184.554c0 6.99-5.667 12.656-12.656 12.656-6.99 0-12.656-5.667-12.656-12.656s5.666-12.656 12.656-12.656 12.656 5.666 12.656 12.656zm88.594-12.656c-6.99 0-12.656 5.667-12.656 12.656s5.666 12.656 12.656 12.656 12.656-5.667 12.656-12.656-5.666-12.656-12.656-12.656z" fill="#002c5d"/><path d="m235.348 332.774h-.895c-6.188 0-11.204-5.016-11.204-11.204v-18.964c0-6.188 5.016-11.204 11.204-11.204h.895c6.188 0 11.204 5.016 11.204 11.204v18.964c0 6.188-5.016 11.204-11.204 11.204zm42.402-11.203v-18.964c0-6.188-5.016-11.204-11.204-11.204h-.895c-6.188 0-11.204 5.016-11.204 11.204v18.964c0 6.188 5.016 11.204 11.204 11.204h.895c6.188-.001 11.204-5.017 11.204-11.204z" fill="#fff5f5"/><path d="m291.758 289.509c-11.028 11.029-25.68 17.102-41.258 17.102-15.577 0-30.229-6.073-41.258-17.101-3.046-3.047-3.046-7.984 0-11.031 3.046-3.044 7.984-3.044 11.03 0 8.082 8.083 18.817 12.533 30.228 12.533s22.146-4.45 30.227-12.532c3.047-3.047 7.985-3.046 11.03-.001 3.046 3.046 3.046 7.984.001 11.03z" fill="#81ade2"/><path d="m361.869 66.166-10.607 10.607c-55.561-55.561-145.964-55.56-201.525 0l-10.606-10.607c29.77-29.771 69.322-46.166 111.369-46.166 42.046 0 81.598 16.395 111.369 46.166z" fill="#d00041"/><path d="m155.866 94.346c10.069 37.579 15.541 80.917-.463 85.206-16.004 4.288-37.14-22.699-47.21-60.277s-5.258-71.518 10.746-75.807 26.857 13.3 36.927 50.878zm189.268 0c-10.069 37.579-15.541 80.917.463 85.206 16.004 4.288 37.14-22.699 47.21-60.277 10.069-37.579 5.258-71.518-10.746-75.807-16.004-4.288-26.858 13.3-36.927 50.878z" fill="#fff5f5"/><path d="m163.616 169.801c-1.583 5.205-4.235 8.685-8.213 9.751-16.004 4.288-37.14-22.699-47.209-60.277s-5.258-71.519 10.746-75.807c.444-.119.884-.22 1.32-.306.538 15.567 3.353 34.052 8.548 53.443 8.773 32.744 22.135 59.857 34.808 73.196zm202.916-70.901c7.121-26.576 14.634-43.153 24.084-49.065-2.337-3.266-5.2-5.468-8.555-6.367-16.004-4.289-26.857 13.299-36.927 50.878-10.069 37.579-15.541 80.917.463 85.206 4.371 1.171 9.125.009 13.933-3.065-6-14.865-.924-48.009 7.002-77.587z" fill="#f7e6b0"/></g></svg>